<svg width="63" height="63" viewBox="0 0 63 63" fill="none" xmlns="http://www.w3.org/2000/svg">
<path fill-rule="evenodd" clip-rule="evenodd" d="M34.6594 0.864538C36.2409 1.6553 37.5233 2.93768 38.314 4.5192L61.1467 50.1845C63.1651 54.2213 61.5288 59.1301 57.492 61.1485C56.3573 61.7158 55.106 62.0112 53.8374 62.0112H8.17206C3.65876 62.0112 0 58.3525 0 53.8392C0 52.5705 0.29538 51.3192 0.862747 50.1845L23.6954 4.5192C25.7138 0.482372 30.6225 -1.15387 34.6594 0.864538ZM28.6406 7.66317L6.48024 51.9839C6.29668 52.351 6.20112 52.7558 6.20112 53.1663C6.20112 54.6264 7.3848 55.8101 8.84494 55.8101H53.1657C53.5761 55.8101 53.9809 55.7145 54.348 55.531C55.654 54.878 56.1834 53.2899 55.5304 51.9839L33.37 7.66317C33.1142 7.15151 32.6993 6.73664 32.1877 6.48082C30.8817 5.82782 29.2936 6.35718 28.6406 7.66317ZM31.0056 43.4078C32.718 43.4078 34.1062 44.796 34.1062 46.5084C34.1062 48.2208 32.718 49.609 31.0056 49.609C29.2932 49.609 27.905 48.2208 27.905 46.5084C27.905 44.796 29.2932 43.4078 31.0056 43.4078ZM31.0056 18.6034C32.718 18.6034 34.1062 19.9915 34.1062 21.7039V34.1062C34.1062 35.8186 32.718 37.2067 31.0056 37.2067C29.2932 37.2067 27.905 35.8186 27.905 34.1062V21.7039C27.905 19.9915 29.2932 18.6034 31.0056 18.6034Z" fill="#FF0000"/>
</svg>
