<svg width="30" height="22" viewBox="0 0 30 22" fill="none" xmlns="http://www.w3.org/2000/svg">
<path d="M2.77012 19.2904C3.06633 19.4339 3.39877 19.5144 3.75 19.5144H26.25C26.6012 19.5144 26.9337 19.4339 27.2299 19.2904L18.3669 10.9488L15.4768 13.3289C15.1998 13.557 14.8002 13.557 14.5232 13.3289L11.6331 10.9488L2.77012 19.2904ZM1.71464 18.2247C1.72159 18.2177 1.7287 18.2107 1.73598 18.2038L10.4658 9.98754L1.77322 2.82895C1.75427 2.81334 1.73628 2.79699 1.71926 2.77999C1.57871 3.0737 1.5 3.40266 1.5 3.75V17.2644C1.5 17.6079 1.57698 17.9335 1.71464 18.2247ZM28.2854 18.2247C28.423 17.9335 28.5 17.6079 28.5 17.2644V3.75C28.5 3.40266 28.4213 3.0737 28.2807 2.77999C28.2637 2.79699 28.2457 2.81334 28.2268 2.82895L19.5342 9.98754L28.264 18.2038C28.2713 18.2107 28.2784 18.2177 28.2854 18.2247ZM27.2166 1.71765C26.9238 1.5781 26.596 1.5 26.25 1.5H3.75C3.40399 1.5 3.07622 1.5781 2.78336 1.71764L15 11.7784L27.2166 1.71765ZM3.75 0H26.25C28.3211 0 30 1.67893 30 3.75V17.2644C30 19.3355 28.3211 21.0144 26.25 21.0144H3.75C1.67893 21.0144 0 19.3355 0 17.2644V3.75C0 1.67893 1.67893 0 3.75 0Z" fill="black"/>
</svg>
