<svg width="30" height="31" viewBox="0 0 30 31" fill="none" xmlns="http://www.w3.org/2000/svg">
<path d="M1.5 3.75V6.75987C1.5 18.7721 11.2378 28.5099 23.25 28.5099H26.25C27.4926 28.5099 28.5 27.5025 28.5 26.2599V22.4123C28.5 21.4438 27.8803 20.584 26.9615 20.2777L22.1866 18.6861C21.2241 18.3653 20.1658 18.7283 19.603 19.5726L18.5096 21.2128C17.9467 22.057 16.8885 22.4201 15.9259 22.0992L13.6378 21.3365C11.2914 20.5544 9.49115 18.6513 8.84037 16.2651L7.89979 12.8163C7.58558 11.6642 8.22612 10.4674 9.35899 10.0898L10.2628 9.78849C11.2084 9.47329 11.7842 8.51703 11.6203 7.53386L10.928 3.3801C10.7472 2.29518 9.80851 1.5 8.70862 1.5H3.75C2.50736 1.5 1.5 2.50736 1.5 3.75ZM0 3.75C0 1.67893 1.67893 0 3.75 0H8.70862C10.5418 0 12.1062 1.3253 12.4076 3.1335L13.0999 7.28726C13.3851 8.9985 12.383 10.6629 10.7372 11.2115L9.83333 11.5128C9.45571 11.6387 9.2422 12.0376 9.34693 12.4216L10.2875 15.8705C10.8063 17.7728 12.2416 19.2899 14.1122 19.9135L16.4003 20.6762C16.7211 20.7831 17.0739 20.6621 17.2615 20.3807L18.3549 18.7405C19.293 17.3335 21.0567 16.7283 22.661 17.2631L27.4359 18.8547C28.9671 19.3651 30 20.7982 30 22.4123V26.2599C30 28.3309 28.3211 30.0099 26.25 30.0099H23.25C10.4094 30.0099 0 19.6005 0 6.75987V3.75Z" fill="black"/>
</svg>
