<svg width="34" height="35" viewBox="0 0 34 35" fill="none" xmlns="http://www.w3.org/2000/svg">
<path fill-rule="evenodd" clip-rule="evenodd" d="M16.558 4.75055e-07C14.3934 -0.000662481 12.2855 0.692574 10.5438 1.97796C8.80214 3.26335 7.51836 5.07318 6.8809 7.14184C6.24344 9.21049 6.28588 11.429 7.00199 13.4718C7.7181 15.5145 9.07016 17.2739 10.8597 18.4918C7.75383 19.6309 5.05991 21.6735 3.12466 24.3566C1.18941 27.0397 0.101387 30.2406 0.000621751 33.5473C-0.0103613 33.9134 0.12454 34.2689 0.375648 34.5355C0.626756 34.8021 0.973501 34.9581 1.3396 34.9691C1.70571 34.9801 2.06118 34.8452 2.32782 34.5941C2.59446 34.343 2.75043 33.9962 2.76141 33.6301C2.87102 30.0438 4.37272 26.641 6.94829 24.1429C9.52386 21.6449 12.9709 20.2478 16.5589 20.2478C20.1469 20.2478 23.594 21.6449 26.1695 24.1429C28.7451 26.641 30.2468 30.0438 30.3564 33.6301C30.3578 33.8139 30.3959 33.9956 30.4685 34.1644C30.541 34.3333 30.6465 34.486 30.7789 34.6136C30.9112 34.7411 31.0677 34.8409 31.2392 34.9072C31.4106 34.9734 31.5936 35.0048 31.7773 34.9994C31.961 34.994 32.1418 34.952 32.3091 34.8758C32.4763 34.7996 32.6267 34.6908 32.7513 34.5557C32.876 34.4206 32.9724 34.262 33.0349 34.0891C33.0974 33.9163 33.1248 33.7327 33.1154 33.5491C33.015 30.2421 31.9271 27.0409 29.9918 24.3574C28.0566 21.6739 25.3624 19.6311 22.2563 18.4918C24.0458 17.2739 25.3979 15.5145 26.114 13.4718C26.8301 11.429 26.8726 9.21049 26.2351 7.14184C25.5976 5.07318 24.3139 3.26335 22.5722 1.97796C20.8305 0.692574 18.7226 -0.000662481 16.558 4.75055e-07ZM9.19589 10.1229C9.19589 8.17035 9.97154 6.29776 11.3522 4.9171C12.7329 3.53644 14.6054 2.76079 16.558 2.76079C18.5106 2.76079 20.3831 3.53644 21.7638 4.9171C23.1445 6.29776 23.9201 8.17035 23.9201 10.1229C23.9201 12.0755 23.1445 13.948 21.7638 15.3287C20.3831 16.7094 18.5106 17.485 16.558 17.485C14.6054 17.485 12.7329 16.7094 11.3522 15.3287C9.97154 13.948 9.19589 12.0755 9.19589 10.1229Z" fill="black"/>
</svg>
